<svg xmlns="http://www.w3.org/2000/svg" xmlns:xlink="http://www.w3.org/1999/xlink" width="150" zoomAndPan="magnify" viewBox="0 0 112.5 112.499997" height="150" preserveAspectRatio="xMidYMid meet" version="1.0"><defs><clipPath id="27f73a7fb4"><path d="M 2.289062 2.289062 L 109.808594 2.289062 L 109.808594 109.808594 L 2.289062 109.808594 Z M 2.289062 2.289062 " clip-rule="nonzero"/></clipPath><clipPath id="285c3105ab"><path d="M 41.09375 31.289062 L 109.703125 31.289062 L 109.703125 109.703125 L 41.09375 109.703125 Z M 41.09375 31.289062 " clip-rule="nonzero"/></clipPath><clipPath id="efa055c96e"><path d="M 109.703125 55.996094 C 109.703125 85.660156 85.660156 109.703125 55.996094 109.703125 C 26.332031 109.703125 2.289062 85.660156 2.289062 55.996094 C 2.289062 26.332031 26.332031 2.289062 55.996094 2.289062 C 85.660156 2.289062 109.703125 26.332031 109.703125 55.996094 Z M 109.703125 55.996094 " clip-rule="nonzero"/></clipPath></defs><g clip-path="url(#27f73a7fb4)"><path fill="#62b0f7" d="M 109.703125 55.996094 C 109.703125 85.660156 85.660156 109.703125 55.996094 109.703125 C 26.332031 109.703125 2.289062 85.660156 2.289062 55.996094 C 2.289062 26.332031 26.332031 2.289062 55.996094 2.289062 C 85.660156 2.289062 109.703125 26.332031 109.703125 55.996094 " fill-opacity="1" fill-rule="nonzero"/></g><g clip-path="url(#285c3105ab)"><g clip-path="url(#efa055c96e)"><path fill="#4573c8" d="M 133.605469 74.722656 L 90.25 31.367188 L 41.121094 80.761719 L 80.453125 120.09375 L 133.605469 74.722656 " fill-opacity="1" fill-rule="nonzero"/></g></g><path fill="#ffffff" d="M 90.25 31.367188 C 88.8125 29.929688 86.90625 29.140625 84.878906 29.140625 C 82.847656 29.140625 80.941406 29.929688 79.507812 31.367188 L 46.363281 64.507812 L 32.484375 50.628906 C 31.050781 49.191406 29.144531 48.402344 27.113281 48.402344 C 25.085938 48.402344 23.179688 49.191406 21.742188 50.628906 C 18.78125 53.589844 18.78125 58.40625 21.742188 61.367188 L 40.925781 80.546875 C 40.945312 80.570312 40.96875 80.59375 40.992188 80.621094 C 41.359375 80.984375 41.761719 81.3125 42.1875 81.59375 C 43.429688 82.414062 44.875 82.851562 46.371094 82.851562 C 48.398438 82.851562 50.308594 82.058594 51.738281 80.625 C 51.808594 80.558594 88.679688 43.675781 90.25 42.105469 C 91.683594 40.671875 92.472656 38.765625 92.472656 36.738281 C 92.472656 34.707031 91.683594 32.800781 90.25 31.367188 " fill-opacity="1" fill-rule="nonzero"/></svg>